<svg width="718" height="232" viewBox="0 0 718 232" fill="none" xmlns="http://www.w3.org/2000/svg">
<path fill-rule="evenodd" clip-rule="evenodd" d="M127.412 0C111.212 0 98.252 12.96 98.252 28.836V202.824C98.576 218.376 111.536 231.336 127.412 231.336H145.232C160.784 230.688 173.096 218.376 173.42 202.824V28.836C173.42 13.284 160.784 0.647992 145.232 0H127.412ZM133.892 210.924C127.088 210.6 121.58 205.092 121.58 198.288V33.048C121.58 26.244 127.088 20.736 133.892 20.412H137.456C144.26 20.412 149.768 25.92 149.768 33.048V198.288C149.768 205.416 144.26 210.924 137.456 210.924H133.892ZM23.328 9.396V206.064H75.816C74.8401 208.26 73.6804 210.915 72.5618 213.476C70.7095 217.717 68.97 221.7 68.364 222.912C66.744 225.828 63.18 229.068 55.728 229.068H0V2.26799H16.2C20.088 2.59199 23.328 5.50799 23.328 9.396ZM691.74 229.068H717.336L684.612 14.58C683.64 8.42399 682.02 2.26799 672.3 2.26799H659.664L625.32 229.068H650.916L671.328 72.9L691.74 229.068ZM366.252 28.836C366.252 12.96 379.212 0 395.412 0H413.232C428.784 0.647992 441.42 13.284 441.42 28.836V202.824C441.096 218.376 428.784 230.688 413.232 231.336H395.412C379.536 231.336 366.576 218.376 366.252 202.824V28.836ZM389.58 198.288C389.58 205.092 395.088 210.6 401.892 210.924H405.456C412.26 210.924 417.768 205.416 417.768 198.288V33.048C417.768 25.92 412.26 20.412 405.456 20.412H401.892C395.088 20.736 389.58 26.244 389.58 33.048V198.288ZM548.936 2.26799H503.9V229.068H548.936C564.812 229.068 577.448 216.432 577.772 200.556V30.78C577.448 14.904 564.812 2.26799 548.936 2.26799ZM554.768 194.076C554.768 202.824 548.936 206.064 542.456 206.064H527.228V25.596H542.456C548.936 25.596 554.768 28.836 554.768 37.26V194.076ZM307.152 97.2C307.152 97.2 307.476 111.456 293.868 115.668C307.476 119.88 307.152 134.136 307.152 134.136V200.556C306.828 216.432 294.192 229.068 278.316 229.068H236.196V2.26799H278.316C294.192 2.26799 306.828 14.904 307.152 30.78V97.2ZM271.836 104.976C277.992 104.976 283.824 102.06 283.824 91.692V37.26C283.824 28.836 277.992 25.596 271.836 25.596H259.2V104.976H271.836ZM271.836 206.064C277.992 206.064 283.824 202.824 283.824 194.076V139.32C283.824 129.276 277.992 126.36 271.836 126.36H259.2V206.064H271.836Z" fill="#ECECEC"/>
</svg>
